<svg 
 xmlns="http://www.w3.org/2000/svg"
 xmlns:xlink="http://www.w3.org/1999/xlink"
 width="13px" height="18px">
<path fill-rule="evenodd" d="M6.797,0.132 C3.379,0.132 0.598,2.913 0.598,6.330 C0.598,10.572 6.146,16.799 6.382,17.062 C6.604,17.309 6.991,17.308 7.213,17.062 C7.449,16.799 12.996,10.572 12.996,6.330 C12.996,2.913 10.215,0.132 6.797,0.132 ZM6.797,9.449 C5.078,9.449 3.678,8.050 3.678,6.330 C3.678,4.611 5.078,3.212 6.797,3.212 C8.517,3.212 9.916,4.611 9.916,6.330 C9.916,8.050 8.517,9.449 6.797,9.449 Z"/>
</svg>