<svg 
 xmlns="http://www.w3.org/2000/svg"
 xmlns:xlink="http://www.w3.org/1999/xlink"
 width="37px" height="51px">
<path fill-rule="evenodd"  fill="rgb(255, 255, 255)"
 d="M35.196,7.716 C34.344,7.716 33.714,7.020 33.677,6.198 C33.641,5.377 34.401,4.679 35.196,4.679 C36.047,4.679 36.678,5.375 36.715,6.198 C36.751,7.018 35.990,7.716 35.196,7.716 ZM30.017,9.874 C29.980,9.054 30.742,8.355 31.536,8.355 C32.387,8.355 33.018,9.051 33.055,9.874 C33.092,10.694 32.331,11.393 31.536,11.393 C30.684,11.393 30.054,10.697 30.017,9.874 ZM26.582,9.874 L33.878,17.170 C34.471,17.763 34.471,18.725 33.878,19.317 C33.582,19.614 33.193,19.763 32.804,19.763 C32.416,19.763 32.027,19.614 31.730,19.317 L23.361,10.948 C22.768,10.355 22.768,9.393 23.361,8.800 L31.730,0.430 C32.323,-0.163 33.285,-0.163 33.878,0.430 C34.471,1.023 34.471,1.985 33.878,2.578 L26.582,9.874 ZM0.429,17.459 C1.057,14.171 3.684,11.586 6.992,11.017 L6.992,7.331 C6.992,6.492 7.672,5.812 8.511,5.812 L15.484,5.812 C16.323,5.812 17.003,6.492 17.003,7.331 L17.003,11.017 C20.312,11.586 22.938,14.171 23.566,17.459 L0.429,17.459 ZM5.297,29.814 C5.297,30.653 5.977,31.333 6.816,31.333 C7.654,31.333 8.334,30.653 8.334,29.814 L8.334,20.496 L10.317,20.496 L10.317,25.117 C10.317,25.955 10.997,26.635 11.836,26.635 C12.674,26.635 13.354,25.955 13.354,25.117 L13.354,20.496 L23.711,20.496 L23.711,46.463 C23.711,48.973 21.670,51.015 19.160,51.015 L4.836,51.015 C2.326,51.015 0.284,48.973 0.284,46.463 L0.284,20.496 L5.297,20.496 L5.297,29.814 ZM33.677,13.551 C33.641,12.730 34.401,12.032 35.196,12.032 C36.047,12.032 36.678,12.727 36.715,13.551 C36.751,14.371 35.990,15.069 35.196,15.069 C34.344,15.069 33.714,14.373 33.677,13.551 Z"/>
</svg>