<svg 
 xmlns="http://www.w3.org/2000/svg"
 xmlns:xlink="http://www.w3.org/1999/xlink"
 width="53px" height="49px">
<path fill-rule="evenodd"  fill="rgb(255, 255, 255)"
 d="M52.331,32.068 C52.331,41.240 44.753,48.717 35.582,48.717 C32.221,48.717 29.104,47.718 26.500,45.992 C31.041,43.026 34.068,37.910 34.068,32.068 C34.068,31.947 34.068,31.856 34.037,31.735 C39.335,29.071 43.028,23.592 43.119,17.265 C48.507,19.989 52.331,25.620 52.331,32.068 ZM26.500,18.143 C23.897,16.418 20.779,15.419 17.419,15.419 C14.694,15.419 12.152,16.084 9.881,17.265 C9.851,17.144 9.851,17.053 9.851,16.932 C9.851,7.760 17.328,0.283 26.500,0.283 C35.672,0.283 43.149,7.760 43.149,16.932 C43.149,17.053 43.149,17.144 43.119,17.265 C40.848,16.084 38.306,15.419 35.582,15.419 C32.221,15.419 29.104,16.418 26.500,18.143 ZM18.963,31.735 C18.932,31.856 18.932,31.947 18.932,32.068 C18.932,37.910 21.959,43.026 26.500,45.992 C23.897,47.718 20.779,48.717 17.419,48.717 C8.247,48.717 0.669,41.240 0.669,32.068 C0.669,25.620 4.493,19.989 9.881,17.265 C9.972,23.592 13.665,29.071 18.963,31.735 ZM18.963,31.735 C19.053,26.044 22.050,21.049 26.500,18.143 C30.950,21.049 33.947,26.044 34.037,31.735 C31.767,32.916 29.225,33.582 26.500,33.582 C23.776,33.582 21.233,32.916 18.963,31.735 Z"/>
</svg>