<svg 
 xmlns="http://www.w3.org/2000/svg"
 xmlns:xlink="http://www.w3.org/1999/xlink"
 width="52px" height="52px">
<path fill-rule="evenodd"  fill="rgb(255, 255, 255)"
 d="M17.582,52.012 L17.582,37.476 L51.992,37.476 L51.992,52.012 L17.582,52.012 ZM10.753,34.430 L42.371,16.175 L49.638,28.763 L39.824,34.430 L10.753,34.430 ZM4.484,34.531 L23.151,2.199 L35.739,9.467 L29.661,19.996 L4.484,34.531 ZM-0.000,0.019 L14.535,0.019 L14.535,11.029 L-0.000,36.206 L-0.000,0.019 ZM7.267,37.476 L14.535,37.476 L14.535,52.012 L7.267,52.012 C3.260,52.012 -0.000,48.751 -0.000,44.744 C-0.000,40.736 3.260,37.476 7.267,37.476 ZM7.267,48.793 C9.500,48.793 11.316,46.976 11.316,44.744 C11.316,42.511 9.500,40.695 7.267,40.695 C5.035,40.695 3.219,42.511 3.219,44.744 C3.219,46.976 5.035,48.793 7.267,48.793 ZM7.267,43.742 C7.820,43.742 8.269,44.191 8.269,44.744 C8.269,45.296 7.820,45.746 7.267,45.746 C6.715,45.746 6.265,45.296 6.265,44.744 C6.265,44.191 6.715,43.742 7.267,43.742 Z"/>
</svg>