<svg 
 xmlns="http://www.w3.org/2000/svg"
 xmlns:xlink="http://www.w3.org/1999/xlink"
 width="35px" height="46px">
<path fill-rule="evenodd"  fill="rgb(255, 255, 255)"
 d="M31.590,19.182 C31.340,18.820 30.784,18.150 30.748,18.105 C21.463,8.121 19.158,2.291 18.677,0.743 C18.538,0.318 18.140,0.028 17.677,0.028 C17.223,0.028 16.816,0.318 16.686,0.743 C16.196,2.291 13.891,8.121 4.569,18.150 C4.569,18.150 4.023,18.820 3.763,19.182 C1.449,22.413 0.394,26.387 0.792,30.361 C1.181,34.235 2.949,37.720 5.606,40.354 C8.262,42.979 11.799,44.753 15.751,45.179 C16.409,45.251 17.057,45.287 17.705,45.287 C21.889,45.287 25.841,43.812 28.998,41.051 C32.590,37.910 34.654,33.402 34.654,28.687 C34.654,25.265 33.589,21.979 31.590,19.182 Z"/>
</svg>