<?xml version="1.0" encoding="utf-8"?>
<!-- Generator: Adobe Illustrator 16.0.0, SVG Export Plug-In . SVG Version: 6.00 Build 0)  -->
<!DOCTYPE svg PUBLIC "-//W3C//DTD SVG 1.0//EN" "http://www.w3.org/TR/2001/REC-SVG-20010904/DTD/svg10.dtd">
<svg version="1.0" id="Layer_1" xmlns="http://www.w3.org/2000/svg" xmlns:xlink="http://www.w3.org/1999/xlink" x="0px" y="0px"
	 width="81.001px" height="79.999px" viewBox="0 0 81.001 79.999" enable-background="new 0 0 81.001 79.999" xml:space="preserve">
<g>
	<path fill="#89C981" d="M4.653,17.251c2.881,6.671,7.743,13.27,14.547,16.114c0.776,0.322,1.658,0.563,2.564,0.765
		c1.812-2.691,3.892-4.875,6.326-6.663c2.096-1.531,4.288-2.731,6.546-3.674c-0.647-0.452-1.327-0.862-2.039-1.233
		c-2.832-1.474-5.897-2.771-8.883-4.166c2.807,0.758,6.026,1.04,8.713,2.014c1.675,0.613,3.22,1.458,4.66,2.465
		c4.296-1.458,8.786-2.159,13.268-2.69c-3.633-6.01-11.383-10.836-17.224-13.02c-6.101-2.28-13.01-2.562-19.797-3.263
		C9.175,3.475,4.653,1.928,1.344,0.123C0.592-0.288-0.209,0.397,0.049,1.227C1.676,6.407,2.501,12.272,4.653,17.251z"/>
	<path fill="#71C062" d="M79.268,17.613c-7.654,4.141-16.432,4.648-25.031,5.631c-4.199,0.483-8.357,1.08-12.314,2.272
		c-0.858,0.258-1.715,0.548-2.556,0.87c-2.5,0.951-4.911,2.2-7.185,3.867c-2.136,1.563-3.884,3.416-5.355,5.455
		c-2.347,3.254-3.98,7-5.324,10.893c-2.451,7.064-3.575,14.574-3.357,22.042c0.089,3.029,0.138,6.18,0.891,9.136
		c0.169,0.653,0.331,1.482,0.841,1.967c0.664,0.636,1.853-0.017,1.586-0.943c-1.926-6.533-0.729-14.172,1.934-20.415
		c3.059-7.179,8.964-11.448,16.181-14.051c1.917-0.692,3.875-1.297,5.866-1.869c0.041-0.017,0.08-0.017,0.121-0.017
		c0.396,0,0.566,0.58,0.154,0.766c-2.348,1.056-4.677,2.119-6.894,3.271c-10.856,5.64-15.598,18.771-11.528,18.771
		c0.332,0,0.72-0.088,1.165-0.273c6.278-2.586,13.738-2.61,20.638-3.883c2.428-0.443,4.789-1.048,7.006-1.967
		c8.803-3.657,15.098-10.812,18.844-19.416c2.791-6.421,3.875-14.002,5.986-20.673c0.275-0.854-0.332-1.587-1.076-1.587
		C79.672,17.452,79.469,17.5,79.268,17.613z"/>
</g>
</svg>
