<svg 
 xmlns="http://www.w3.org/2000/svg"
 xmlns:xlink="http://www.w3.org/1999/xlink"
 width="46px" height="54px">
<path fill-rule="evenodd"  fill="rgb(255, 255, 255)"
 d="M0.013,53.031 L0.013,46.460 L46.013,46.460 L46.013,53.031 L0.013,53.031 ZM41.085,43.174 C38.363,43.174 36.156,40.967 36.156,38.245 C36.156,35.523 41.085,30.031 41.085,30.031 C41.085,30.031 46.013,35.523 46.013,38.245 C46.013,40.967 43.807,43.174 41.085,43.174 ZM18.084,43.174 C17.243,43.174 16.403,42.853 15.761,42.211 C15.761,42.211 2.618,29.068 2.618,29.068 C1.335,27.785 1.335,25.705 2.618,24.422 L18.367,8.673 L14.799,5.105 L19.445,0.459 L40.802,21.816 L20.407,42.211 C19.765,42.853 18.925,43.174 18.084,43.174 ZM31.510,21.816 L23.013,13.320 C23.013,13.320 9.587,26.745 9.587,26.745 L26.581,26.745 L31.510,21.816 Z"/>
</svg>