<svg 
 xmlns="http://www.w3.org/2000/svg"
 xmlns:xlink="http://www.w3.org/1999/xlink"
 width="51px" height="52px">
<path fill-rule="evenodd"  fill="rgb(255, 255, 255)"
 d="M7.734,25.414 C6.917,25.854 6.098,26.291 5.292,26.726 C4.492,27.181 3.706,27.629 2.945,28.066 C2.179,28.500 1.439,28.923 0.747,29.357 C0.693,29.390 0.642,29.419 0.588,29.453 C1.468,35.806 4.705,41.404 9.394,45.334 C9.458,45.246 9.527,45.152 9.596,45.059 C9.887,44.658 10.214,44.208 10.570,43.716 C10.954,43.223 11.365,42.689 11.804,42.123 C12.231,41.552 12.719,40.962 13.222,40.352 C13.727,39.736 14.246,39.103 14.775,38.457 C15.324,37.826 15.886,37.179 16.445,36.534 C16.446,36.534 16.450,36.529 16.454,36.527 C16.415,37.152 16.376,37.784 16.335,38.429 C16.281,39.338 16.266,40.260 16.231,41.189 C16.202,42.115 16.172,43.044 16.142,43.956 C16.138,44.877 16.134,45.784 16.129,46.661 C16.124,47.541 16.120,48.393 16.149,49.209 C16.149,49.276 16.154,49.334 16.154,49.397 C19.084,50.587 22.285,51.242 25.640,51.242 C28.689,51.242 31.609,50.704 34.313,49.717 C34.269,49.613 34.223,49.505 34.173,49.396 C33.972,48.944 33.744,48.435 33.497,47.879 C33.261,47.301 33.004,46.678 32.736,46.018 C32.455,45.359 32.187,44.642 31.910,43.904 C31.629,43.159 31.339,42.391 31.046,41.611 C30.770,40.817 30.494,40.008 30.216,39.202 C30.215,39.199 30.215,39.195 30.212,39.190 C30.735,39.540 31.263,39.888 31.802,40.247 C32.559,40.746 33.353,41.222 34.139,41.715 C34.925,42.203 35.716,42.695 36.492,43.177 C37.288,43.639 38.069,44.097 38.829,44.538 C39.588,44.980 40.322,45.411 41.043,45.794 C41.101,45.826 41.151,45.852 41.205,45.884 C46.039,42.105 49.458,36.613 50.559,30.317 C50.449,30.305 50.332,30.292 50.218,30.282 C49.728,30.229 49.174,30.172 48.568,30.107 C47.950,30.023 47.279,29.934 46.571,29.833 C45.864,29.752 45.109,29.625 44.328,29.495 C43.544,29.364 42.733,29.232 41.912,29.096 C41.087,28.936 40.251,28.771 39.411,28.608 C39.407,28.608 39.405,28.608 39.401,28.608 C39.960,28.328 40.529,28.045 41.110,27.756 C41.922,27.353 42.727,26.903 43.549,26.473 C44.368,26.031 45.185,25.594 45.992,25.161 C46.790,24.707 47.579,24.257 48.340,23.822 C49.102,23.385 49.842,22.965 50.536,22.530 C50.589,22.498 50.643,22.465 50.694,22.431 C49.813,16.082 46.576,10.481 41.888,6.553 C41.823,6.640 41.755,6.736 41.689,6.827 C41.397,7.228 41.067,7.677 40.710,8.168 C40.327,8.663 39.917,9.197 39.480,9.763 C39.050,10.333 38.563,10.923 38.059,11.536 C37.558,12.150 37.035,12.784 36.508,13.431 C35.957,14.062 35.398,14.706 34.836,15.354 C34.832,15.354 34.831,15.357 34.830,15.361 C34.867,14.736 34.906,14.101 34.949,13.458 C35.004,12.549 35.018,11.624 35.053,10.699 C35.082,9.772 35.112,8.843 35.139,7.930 C35.144,7.008 35.147,6.103 35.152,5.226 C35.157,4.344 35.161,3.492 35.132,2.677 C35.132,2.610 35.128,2.553 35.127,2.489 C32.197,1.299 28.997,0.643 25.640,0.643 C22.593,0.643 19.672,1.182 16.968,2.168 C17.013,2.271 17.059,2.380 17.111,2.489 C17.310,2.942 17.537,3.450 17.784,4.008 C18.021,4.583 18.278,5.207 18.549,5.869 C18.828,6.528 19.095,7.242 19.375,7.983 C19.656,8.730 19.944,9.494 20.239,10.274 C20.511,11.070 20.788,11.877 21.066,12.685 C21.066,12.688 21.069,12.690 21.070,12.695 C20.547,12.347 20.018,11.996 19.479,11.640 C18.723,11.139 17.932,10.663 17.143,10.170 C16.356,9.683 15.566,9.192 14.790,8.710 C13.994,8.247 13.212,7.789 12.454,7.349 C11.696,6.905 10.959,6.476 10.239,6.091 C10.181,6.060 10.131,6.034 10.076,6.002 C5.243,9.781 1.823,15.275 0.726,21.570 C0.835,21.581 0.949,21.595 1.063,21.603 C1.554,21.656 2.110,21.716 2.718,21.781 C3.335,21.862 4.003,21.953 4.710,22.051 C5.421,22.135 6.172,22.264 6.954,22.393 C7.739,22.522 8.549,22.654 9.370,22.791 C10.195,22.951 11.034,23.114 11.870,23.278 C11.874,23.278 11.879,23.278 11.880,23.278 C11.321,23.557 10.753,23.840 10.174,24.129 C9.360,24.534 8.554,24.982 7.734,25.414 ZM25.641,19.326 C29.295,19.326 32.258,22.288 32.258,25.942 C32.258,29.597 29.295,32.559 25.641,32.559 C21.986,32.559 19.024,29.597 19.024,25.942 C19.024,22.288 21.986,19.326 25.641,19.326 Z"/>
</svg>