<svg 
 xmlns="http://www.w3.org/2000/svg"
 xmlns:xlink="http://www.w3.org/1999/xlink"
 width="49px" height="49px">
<path fill-rule="evenodd"  fill="rgb(255, 255, 255)"
 d="M38.198,32.718 C38.269,32.158 38.306,31.587 38.306,31.007 C38.306,28.031 36.635,23.748 33.047,17.529 C32.019,15.747 30.997,14.094 30.155,12.773 C33.292,6.910 37.677,0.500 37.677,0.500 C37.677,0.500 41.257,5.725 43.608,9.802 C46.900,15.507 48.500,19.467 48.500,21.907 C48.500,27.701 43.925,32.445 38.198,32.718 ZM35.559,31.007 C35.559,36.975 30.703,41.831 24.735,41.831 C24.457,41.831 24.179,41.819 23.903,41.797 C24.222,40.644 24.394,39.430 24.394,38.177 C24.394,35.201 22.723,30.918 19.135,24.698 C18.572,23.723 17.946,22.691 17.315,21.680 C20.441,15.879 24.735,9.600 24.735,9.600 C24.735,9.600 28.315,14.825 30.667,18.901 C33.959,24.607 35.559,28.567 35.559,31.007 ZM10.824,49.000 C4.855,49.000 -0.000,44.145 -0.000,38.177 C-0.000,35.737 1.600,31.777 4.892,26.071 C7.243,21.994 10.823,16.769 10.823,16.769 C10.823,16.769 14.404,21.994 16.755,26.071 C20.047,31.777 21.647,35.737 21.647,38.177 C21.647,44.145 16.792,49.000 10.824,49.000 Z"/>
</svg>