<svg 
 xmlns="http://www.w3.org/2000/svg"
 xmlns:xlink="http://www.w3.org/1999/xlink"
 width="51px" height="51px">
<path fill-rule="evenodd"  fill="rgb(255, 255, 255)"
 d="M48.914,50.371 L31.426,50.371 C30.621,50.371 29.969,49.720 29.969,48.914 L29.969,44.542 L50.372,44.542 L50.372,48.914 C50.372,49.720 49.720,50.371 48.914,50.371 ZM29.969,34.341 C29.969,31.930 31.930,29.969 34.341,29.969 L45.999,29.969 C48.410,29.969 50.372,31.930 50.372,34.341 L50.372,41.627 L29.969,41.627 L29.969,34.341 ZM22.488,50.371 L5.000,50.371 C2.590,50.371 0.628,48.410 0.628,46.000 L0.628,44.542 L26.860,44.542 L26.860,46.000 C26.860,48.410 24.899,50.371 22.488,50.371 ZM0.628,21.225 L26.860,21.225 L26.860,24.140 L13.744,24.140 C12.939,24.140 12.287,24.792 12.287,25.597 L12.287,37.256 C12.287,38.061 12.939,38.713 13.744,38.713 L26.860,38.713 L26.860,41.627 L0.628,41.627 L0.628,21.225 ZM15.202,27.054 L26.860,27.054 L26.860,35.798 L15.202,35.798 L15.202,27.054 ZM0.628,16.853 C0.628,14.441 2.598,12.481 5.000,12.481 C5.767,12.481 21.720,12.481 22.488,12.481 C24.899,12.481 26.860,14.442 26.860,16.853 L26.860,18.311 L0.628,18.311 L0.628,16.853 ZM9.372,6.800 L9.372,2.086 C9.372,1.280 10.024,0.629 10.830,0.629 L16.659,0.629 C17.465,0.629 18.116,1.280 18.116,2.086 L18.116,6.800 C19.886,7.160 21.408,8.176 22.459,9.567 L5.029,9.567 C6.081,8.176 7.603,7.160 9.372,6.800 Z"/>
</svg>