<svg
 xmlns="http://www.w3.org/2000/svg"
 xmlns:xlink="http://www.w3.org/1999/xlink"
 width="15px" height="12px">
<path fill-rule="evenodd"  fill="rgb(0, 92, 161)"
 d="M13.386,11.996 L1.676,11.996 C0.789,11.996 0.068,11.287 0.068,10.415 L0.068,3.046 L6.314,7.140 C6.314,7.140 6.314,7.140 6.314,7.140 C6.656,7.364 7.093,7.476 7.531,7.476 C7.969,7.476 8.407,7.364 8.748,7.140 C8.748,7.140 8.748,7.140 8.748,7.140 L14.995,3.046 L14.995,10.415 C14.995,11.287 14.273,11.996 13.386,11.996 ZM8.263,5.425 C7.873,5.680 7.189,5.680 6.800,5.425 C6.800,5.425 6.799,5.425 6.799,5.425 L0.156,1.070 C0.374,0.450 0.973,0.004 1.676,0.004 L13.386,0.004 C14.090,0.004 14.689,0.450 14.907,1.070 L8.263,5.425 C8.263,5.425 8.263,5.425 8.263,5.425 Z"/>
</svg>