<?xml version="1.0" encoding="utf-8"?>
<!-- Generator: Adobe Illustrator 16.0.0, SVG Export Plug-In . SVG Version: 6.00 Build 0)  -->
<!DOCTYPE svg PUBLIC "-//W3C//DTD SVG 1.0//EN" "http://www.w3.org/TR/2001/REC-SVG-20010904/DTD/svg10.dtd">
<svg version="1.0" id="Layer_1" xmlns="http://www.w3.org/2000/svg" xmlns:xlink="http://www.w3.org/1999/xlink" x="0px" y="0px"
	 width="80px" height="80px" viewBox="0 0 80 80" enable-background="new 0 0 80 80" xml:space="preserve">
<g>
	<path fill="#59A4DA" d="M80,48.01V31.991l-7.586-2.206c-0.596-1.888-1.357-3.722-2.273-5.477l3.809-6.929L62.621,6.052l-6.93,3.808
		c-1.754-0.917-3.588-1.678-5.477-2.274L48.009,0H31.99l-2.205,7.586c-1.889,0.596-3.722,1.357-5.477,2.274l-6.93-3.808
		L6.052,17.379l3.809,6.929c-0.917,1.755-1.678,3.588-2.274,5.477L0,31.991V48.01l7.586,2.205c0.597,1.889,1.357,3.722,2.274,5.477
		l-3.809,6.93l11.327,11.327l6.93-3.809c1.755,0.917,3.588,1.678,5.477,2.274L31.99,80h16.019l2.205-7.586
		c1.889-0.597,3.723-1.357,5.477-2.274l6.93,3.809l11.328-11.327l-3.809-6.93c0.916-1.754,1.678-3.588,2.273-5.477L80,48.01z
		 M40,66.094c-14.389,0-26.094-11.705-26.094-26.094c0-14.388,11.705-26.094,26.094-26.094c14.388,0,26.093,11.706,26.093,26.094
		C66.093,54.389,54.388,66.094,40,66.094z"/>
	<path fill="#F16738" d="M42.343,18.723v18.934h18.934C60.191,27.722,52.279,19.81,42.343,18.723z"/>
	<path fill="#F16738" d="M40.971,42.344L26.619,56.695c3.668,2.945,8.321,4.711,13.381,4.711c11.011,0,20.107-8.357,21.277-19.062
		H40.971z"/>
	<path fill="#F16738" d="M18.594,40c0,5.059,1.766,9.713,4.711,13.381l14.352-14.352V18.723C26.951,19.894,18.594,28.989,18.594,40z
		"/>
</g>
</svg>
