<svg
 xmlns="http://www.w3.org/2000/svg"
 xmlns:xlink="http://www.w3.org/1999/xlink"
 width="14px" height="13px">
<path fill-rule="evenodd"  fill="rgb(0, 92, 161)"
 d="M13.179,10.164 C13.207,10.373 13.143,10.555 12.989,10.709 L11.176,12.510 C11.094,12.602 10.987,12.678 10.856,12.742 C10.724,12.806 10.595,12.847 10.467,12.865 C10.458,12.865 10.431,12.867 10.386,12.872 C10.340,12.877 10.281,12.879 10.208,12.879 C10.036,12.879 9.756,12.849 9.370,12.790 C8.984,12.731 8.512,12.585 7.953,12.353 C7.394,12.122 6.761,11.773 6.052,11.310 C5.343,10.846 4.589,10.209 3.790,9.400 C3.154,8.772 2.627,8.172 2.209,7.599 C1.791,7.026 1.455,6.496 1.200,6.009 C0.946,5.523 0.755,5.082 0.628,4.686 C0.501,4.291 0.415,3.950 0.369,3.663 C0.324,3.377 0.306,3.151 0.315,2.988 C0.324,2.824 0.328,2.733 0.328,2.715 C0.346,2.588 0.387,2.458 0.451,2.326 C0.515,2.194 0.592,2.087 0.683,2.005 L2.495,0.191 C2.622,0.063 2.768,0.000 2.931,0.000 C3.049,0.000 3.154,0.034 3.245,0.102 C3.335,0.170 3.413,0.255 3.476,0.355 L4.934,3.124 C5.016,3.269 5.039,3.429 5.003,3.601 C4.966,3.774 4.889,3.920 4.771,4.038 L4.103,4.706 C4.085,4.725 4.069,4.754 4.055,4.795 C4.042,4.836 4.035,4.870 4.035,4.898 C4.071,5.088 4.153,5.307 4.280,5.553 C4.389,5.771 4.557,6.037 4.785,6.350 C5.012,6.664 5.334,7.026 5.752,7.435 C6.161,7.854 6.524,8.179 6.842,8.411 C7.160,8.643 7.426,8.813 7.640,8.922 C7.853,9.031 8.017,9.098 8.130,9.120 L8.301,9.154 C8.319,9.154 8.348,9.147 8.389,9.134 C8.430,9.120 8.460,9.104 8.478,9.086 L9.254,8.295 C9.418,8.149 9.609,8.076 9.827,8.076 C9.981,8.076 10.104,8.104 10.195,8.158 L10.208,8.158 L12.839,9.713 C13.029,9.832 13.143,9.982 13.179,10.164 Z"/>
</svg>