<svg 
 xmlns="http://www.w3.org/2000/svg"
 xmlns:xlink="http://www.w3.org/1999/xlink"
 width="78px" height="65px">
<path fill-rule="evenodd" opacity="0.502" fill="rgb(0, 92, 161)"
 d="M70.808,10.217 L54.904,10.217 L54.904,7.033 C54.904,3.522 52.051,0.667 48.542,0.667 L29.457,0.667 C25.949,0.667 23.095,3.522 23.095,7.033 L23.095,10.216 L7.191,10.216 C3.683,10.217 0.830,13.072 0.830,16.583 L0.830,57.967 C0.830,61.478 3.683,64.333 7.191,64.333 L70.809,64.333 C74.317,64.333 77.170,61.478 77.170,57.967 L77.170,16.583 C77.170,13.072 74.317,10.217 70.808,10.217 ZM26.276,7.033 C26.276,5.279 27.704,3.850 29.457,3.850 L48.542,3.850 C50.296,3.850 51.723,5.279 51.723,7.033 L51.723,10.216 L26.276,10.216 L26.276,7.033 ZM73.989,57.967 C73.989,59.722 72.562,61.150 70.809,61.150 L7.191,61.150 C5.438,61.150 4.011,59.722 4.011,57.967 L4.011,34.798 C4.950,35.346 6.027,35.683 7.191,35.683 L32.638,35.683 L32.638,40.458 C32.638,41.339 33.350,42.050 34.229,42.050 L43.771,42.050 C44.650,42.050 45.362,41.339 45.362,40.458 L45.362,35.683 L70.809,35.683 C71.973,35.683 73.050,35.346 73.990,34.798 L73.990,57.967 L73.989,57.967 ZM35.819,38.867 L35.819,32.500 L42.181,32.500 L42.181,38.867 L35.819,38.867 ZM73.989,29.317 C73.989,31.072 72.562,32.500 70.809,32.500 L45.362,32.500 L45.362,30.908 C45.362,30.029 44.650,29.317 43.771,29.317 L34.229,29.317 C33.350,29.317 32.638,30.029 32.638,30.908 L32.638,32.500 L7.191,32.500 C5.438,32.500 4.011,31.072 4.011,29.317 L4.011,16.583 C4.011,14.829 5.438,13.400 7.191,13.400 L70.809,13.400 C72.562,13.400 73.989,14.829 73.989,16.583 L73.989,29.317 Z"/>
</svg>