<?xml version="1.0" encoding="utf-8"?>
<!-- Generator: Adobe Illustrator 16.0.0, SVG Export Plug-In . SVG Version: 6.00 Build 0)  -->
<!DOCTYPE svg PUBLIC "-//W3C//DTD SVG 1.0//EN" "http://www.w3.org/TR/2001/REC-SVG-20010904/DTD/svg10.dtd">
<svg version="1.0" id="Layer_1" xmlns="http://www.w3.org/2000/svg" xmlns:xlink="http://www.w3.org/1999/xlink" x="0px" y="0px"
	 width="73.333px" height="73.333px" viewBox="0 0 73.333 73.333" enable-background="new 0 0 73.333 73.333" xml:space="preserve">
<g>
	<path fill="#F16738" d="M58.294,51.133c-4.541,0-8.236-3.695-8.236-8.236s3.695-8.236,8.236-8.236c4.542,0,8.236,3.695,8.236,8.236
		S62.835,51.133,58.294,51.133z"/>
	<path fill="#59A4DA" d="M15.039,51.133c-4.542,0-8.236-3.695-8.236-8.236s3.694-8.236,8.236-8.236c4.541,0,8.235,3.695,8.235,8.236
		S19.58,51.133,15.039,51.133z"/>
	<path fill="#005EA3" d="M50.989,5.729c-2.715,0-5.156-1.508-6.37-3.937l-0.302-0.604C43.954,0.46,43.209,0,42.396,0H30.938
		c-0.814,0-1.558,0.46-1.922,1.188l-0.302,0.605c-1.214,2.428-3.655,3.937-6.37,3.937c-1.187,0-2.148,0.962-2.148,2.148v12.26
		c0,4.82,1.521,9.412,4.398,13.279c2.877,3.867,6.839,6.644,11.456,8.029c0.201,0.06,0.409,0.09,0.617,0.09s0.416-0.03,0.617-0.09
		c4.617-1.385,8.579-4.162,11.456-8.029c2.877-3.867,4.398-8.459,4.398-13.279V7.877C53.138,6.691,52.176,5.729,50.989,5.729
		L50.989,5.729z M44.262,18.236l-8.102,8.102c-0.419,0.419-0.969,0.629-1.519,0.629s-1.1-0.21-1.519-0.629l-4.051-4.051
		c-0.839-0.839-0.839-2.199,0-3.038c0.839-0.839,2.199-0.839,3.039,0l2.532,2.532l6.583-6.583c0.839-0.839,2.2-0.839,3.039,0
		C45.101,16.037,45.101,17.397,44.262,18.236z"/>
	<g>
		<g>
			<path fill="#F16738" d="M67.08,51.825c-2.264,2.228-5.366,3.604-8.786,3.604c-3.425,0-6.532-1.381-8.796-3.616
				c-1.202,0.866-2.272,1.905-3.17,3.083l1.181,1.034c3.578,3.134,5.63,7.649,5.63,12.389v5.013h18.047
				c1.187,0,2.148-0.962,2.148-2.148v-7.162C73.333,59.008,70.865,54.559,67.08,51.825L67.08,51.825z"/>
			<path fill="#59A4DA" d="M6.253,51.825C2.468,54.559,0,59.008,0,64.023v7.162c0,1.187,0.962,2.148,2.148,2.148h18.047V68.32
				c0-4.739,2.052-9.255,5.63-12.389l1.18-1.034c-0.898-1.178-1.968-2.217-3.17-3.083c-2.264,2.234-5.372,3.616-8.796,3.616
				C11.62,55.43,8.517,54.053,6.253,51.825L6.253,51.825z"/>
		</g>
		<path fill="#71C062" d="M44.676,59.164c-2.021,2.109-4.864,3.427-8.01,3.427s-5.988-1.318-8.01-3.427
			c-2.55,2.233-4.165,5.509-4.165,9.156v5.013h24.349V68.32C48.841,64.672,47.226,61.396,44.676,59.164z"/>
	</g>
	<path fill="#71C062" d="M36.667,58.294c-3.751,0-6.803-3.052-6.803-6.803s3.052-6.803,6.803-6.803s6.803,3.052,6.803,6.803
		S40.418,58.294,36.667,58.294z"/>
</g>
</svg>
