<?xml version="1.0" encoding="utf-8"?>
<!-- Generator: Adobe Illustrator 24.2.0, SVG Export Plug-In . SVG Version: 6.00 Build 0)  -->
<svg version="1.1" id="Layer_1" xmlns="http://www.w3.org/2000/svg" xmlns:xlink="http://www.w3.org/1999/xlink" x="0px" y="0px"
	 viewBox="0 0 261.37 50.37" style="enable-background:new 0 0 261.37 50.37;" xml:space="preserve">
<style type="text/css">
	.st0{fill:none;stroke:#FFFFFF;stroke-width:1.6702;stroke-miterlimit:22.9256;}
	.st1{clip-path:url(#SVGID_2_);fill:url(#SVGID_3_);}
	.st2{clip-path:url(#SVGID_5_);fill:url(#SVGID_6_);}
	.st3{clip-path:url(#SVGID_8_);fill:url(#SVGID_9_);}
	.st4{fill-rule:evenodd;clip-rule:evenodd;fill:#2A398E;}
	.st5{fill:#2A398E;}
	.st6{clip-path:url(#SVGID_11_);fill:url(#SVGID_12_);}
	.st7{clip-path:url(#SVGID_14_);fill:url(#SVGID_15_);}
	.st8{clip-path:url(#SVGID_17_);fill:url(#SVGID_18_);}
	.st9{fill:none;stroke:#FFFFFF;stroke-width:2.1925;stroke-miterlimit:22.9256;}
	.st10{clip-path:url(#SVGID_20_);fill:url(#SVGID_21_);}
	.st11{clip-path:url(#SVGID_23_);fill:url(#SVGID_24_);}
	.st12{clip-path:url(#SVGID_26_);fill:url(#SVGID_27_);}
	.st13{fill:none;stroke:#2A398E;stroke-width:0.8418;stroke-miterlimit:22.9256;}
</style>
<g>
	<polygon class="st0" points="2.58,40.52 2.03,37.26 2.73,37.7 3.45,38.06 4.18,38.37 4.95,38.64 5.72,38.83 6.51,39 7.31,39.12 
		8.15,39.22 9,39.26 9.84,39.26 10.71,39.26 11.58,39.22 12.45,39.17 13.34,39.07 14.23,38.98 15.12,38.88 16.02,38.76 16.91,38.64 
		17.82,38.52 18.72,38.4 19.63,38.3 20.53,38.18 21.42,38.08 22.31,38.01 23.2,37.94 24.07,37.94 24.94,37.91 25.81,37.94 
		26.67,37.99 27.49,38.08 28.34,38.2 29.13,38.37 29.47,38.47 29.76,38.59 30.1,38.71 30.41,38.83 30.73,38.98 31.01,39.12 
		31.33,39.29 31.64,39.46 31.96,39.63 32.27,39.84 32.56,40.04 32.85,40.23 33.14,40.45 33.43,40.69 33.67,40.93 33.96,41.17 
		34.2,41.41 34.46,41.68 34.68,41.94 34.92,42.21 35.14,42.5 35.36,42.79 35.55,43.1 35.72,43.39 35.91,43.7 36.05,44.02 
		36.2,44.33 36.32,44.67 36.44,45 36.54,45.34 36.61,45.68 36.68,46.04 36.75,46.19 36.83,46.33 36.87,46.47 36.9,46.62 
		36.92,46.76 36.95,46.93 36.97,47.1 36.97,47.27 36.97,47.44 36.97,47.61 36.97,47.8 37,47.97 37,48.16 37.02,48.33 37.04,48.52 
		37.07,48.72 36.34,48.26 35.6,47.87 34.83,47.54 34.03,47.27 33.23,47.05 32.41,46.86 31.59,46.76 30.75,46.67 29.91,46.62 
		29.04,46.62 28.15,46.64 27.28,46.69 26.38,46.76 25.49,46.84 24.6,46.96 23.68,47.08 22.77,47.2 21.88,47.37 20.96,47.49 
		20.04,47.63 19.15,47.73 18.23,47.87 17.34,47.97 16.45,48.04 15.56,48.11 14.67,48.16 13.8,48.16 12.9,48.14 12.04,48.07 
		11.19,47.97 10.35,47.83 9.53,47.63 9.26,47.51 9,47.39 8.73,47.25 8.47,47.1 8.2,46.96 7.96,46.79 7.7,46.62 7.43,46.43 
		7.17,46.23 6.92,46.04 6.66,45.82 6.42,45.61 6.18,45.37 5.94,45.15 5.69,44.93 5.48,44.69 5.24,44.43 5.02,44.18 4.8,43.94 
		4.59,43.68 4.37,43.41 4.18,43.17 3.98,42.88 3.79,42.62 3.62,42.35 3.43,42.09 3.26,41.84 3.11,41.56 2.97,41.29 2.82,41.02 
		2.7,40.76 	"/>
	<g>
		<defs>
			<polygon id="SVGID_1_" points="2.58,40.52 2.03,37.26 2.73,37.7 3.45,38.06 4.18,38.37 4.95,38.64 5.72,38.83 6.51,39 
				7.31,39.12 8.15,39.22 9,39.26 9.84,39.26 10.71,39.26 11.58,39.22 12.45,39.17 13.34,39.07 14.23,38.98 15.12,38.88 
				16.02,38.76 16.91,38.64 17.82,38.52 18.72,38.4 19.63,38.3 20.53,38.18 21.42,38.08 22.31,38.01 23.2,37.94 24.07,37.94 
				24.94,37.91 25.81,37.94 26.67,37.99 27.49,38.08 28.34,38.2 29.13,38.37 29.47,38.47 29.76,38.59 30.1,38.71 30.41,38.83 
				30.73,38.98 31.02,39.12 31.33,39.29 31.64,39.46 31.96,39.63 32.27,39.84 32.56,40.04 32.85,40.23 33.14,40.45 33.43,40.69 
				33.67,40.93 33.96,41.17 34.2,41.41 34.46,41.68 34.68,41.94 34.92,42.21 35.14,42.5 35.36,42.79 35.55,43.1 35.72,43.39 
				35.91,43.7 36.05,44.02 36.2,44.33 36.32,44.67 36.44,45 36.54,45.34 36.61,45.68 36.68,46.04 36.75,46.19 36.83,46.33 
				36.87,46.47 36.9,46.62 36.92,46.76 36.95,46.93 36.97,47.1 36.97,47.27 36.97,47.44 36.97,47.61 36.97,47.8 37,47.97 37,48.16 
				37.02,48.33 37.04,48.52 37.07,48.72 36.34,48.26 35.6,47.87 34.82,47.54 34.03,47.27 33.23,47.05 32.41,46.86 31.59,46.76 
				30.75,46.67 29.91,46.62 29.04,46.62 28.15,46.64 27.28,46.69 26.38,46.76 25.49,46.84 24.6,46.96 23.68,47.08 22.77,47.2 
				21.88,47.37 20.96,47.49 20.04,47.63 19.15,47.73 18.23,47.87 17.34,47.97 16.45,48.04 15.56,48.11 14.67,48.16 13.8,48.16 
				12.9,48.14 12.04,48.07 11.19,47.97 10.35,47.83 9.53,47.63 9.26,47.51 9,47.39 8.73,47.25 8.47,47.1 8.2,46.96 7.96,46.79 
				7.7,46.62 7.43,46.43 7.17,46.23 6.92,46.04 6.66,45.82 6.42,45.61 6.18,45.37 5.94,45.15 5.69,44.93 5.48,44.69 5.24,44.43 
				5.02,44.18 4.8,43.94 4.59,43.68 4.37,43.41 4.18,43.17 3.98,42.88 3.79,42.62 3.62,42.35 3.43,42.09 3.26,41.84 3.11,41.56 
				2.97,41.29 2.83,41.02 2.7,40.76 			"/>
		</defs>
		<clipPath id="SVGID_2_">
			<use xlink:href="#SVGID_1_"  style="overflow:visible;"/>
		</clipPath>
		<linearGradient id="SVGID_3_" gradientUnits="userSpaceOnUse" x1="2.0292" y1="42.9905" x2="37.0679" y2="42.9905">
			<stop  offset="0" style="stop-color:#E30613"/>
			<stop  offset="0.5" style="stop-color:#F7AC6F"/>
			<stop  offset="1" style="stop-color:#E30613"/>
		</linearGradient>
		<rect x="2.03" y="37.26" class="st1" width="35.04" height="11.45"/>
	</g>
	<polygon class="st0" points="5.07,36.11 1.98,34.97 2.7,34.56 3.38,34.13 4.01,33.67 4.63,33.12 5.19,32.56 5.74,31.96 6.25,31.31 
		6.73,30.66 7.19,29.93 7.62,29.21 8.06,28.46 8.44,27.71 8.83,26.89 9.22,26.1 9.58,25.28 9.92,24.46 10.28,23.61 10.64,22.77 
		10.98,21.93 11.31,21.08 11.65,20.26 12.04,19.42 12.4,18.57 12.76,17.78 13.17,16.98 13.58,16.21 14.01,15.44 14.45,14.69 
		14.93,13.99 15.41,13.32 15.94,12.67 16.5,12.04 16.74,11.82 17,11.58 17.25,11.39 17.54,11.17 17.8,10.98 18.09,10.78 18.4,10.59 
		18.72,10.42 19.01,10.23 19.32,10.06 19.66,9.92 19.97,9.77 20.31,9.63 20.65,9.51 20.98,9.39 21.32,9.27 21.66,9.17 22.02,9.1 
		22.36,9.03 22.72,8.95 23.06,8.9 23.44,8.88 23.78,8.86 24.14,8.83 24.48,8.86 24.84,8.88 25.2,8.9 25.54,8.95 25.88,9.03 
		26.24,9.1 26.58,9.22 26.89,9.34 27.06,9.34 27.21,9.36 27.37,9.39 27.52,9.43 27.66,9.51 27.81,9.56 27.95,9.63 28.1,9.7 
		28.27,9.8 28.41,9.87 28.58,9.97 28.72,10.04 28.89,10.11 29.06,10.21 29.25,10.28 29.42,10.35 28.65,10.76 27.95,11.22 
		27.28,11.7 26.65,12.26 26.07,12.83 25.49,13.46 24.99,14.09 24.48,14.79 24.02,15.51 23.59,16.26 23.15,17.03 22.77,17.83 
		22.41,18.62 22.02,19.44 21.66,20.29 21.32,21.13 20.98,21.98 20.65,22.82 20.31,23.69 19.97,24.55 19.61,25.37 19.27,26.24 
		18.91,27.06 18.52,27.88 18.14,28.68 17.73,29.47 17.29,30.22 16.84,30.97 16.35,31.69 15.85,32.37 15.29,33.02 14.71,33.67 
		14.47,33.81 14.23,33.98 13.99,34.15 13.73,34.32 13.46,34.47 13.19,34.61 12.9,34.73 12.62,34.88 12.33,35 12.04,35.12 
		11.72,35.21 11.41,35.33 11.07,35.43 10.78,35.53 10.45,35.62 10.11,35.7 9.79,35.77 9.46,35.84 9.14,35.91 8.81,35.96 8.49,36.03 
		8.15,36.06 7.84,36.11 7.5,36.13 7.17,36.15 6.88,36.18 6.56,36.18 6.25,36.18 5.94,36.18 5.65,36.15 5.33,36.13 	"/>
	<g>
		<defs>
			<polygon id="SVGID_4_" points="5.07,36.11 1.98,34.97 2.7,34.56 3.38,34.13 4.01,33.67 4.63,33.12 5.19,32.56 5.74,31.96 
				6.25,31.31 6.73,30.66 7.19,29.93 7.62,29.21 8.06,28.46 8.44,27.71 8.83,26.89 9.22,26.1 9.58,25.28 9.92,24.46 10.28,23.61 
				10.64,22.77 10.98,21.93 11.31,21.08 11.65,20.26 12.04,19.42 12.4,18.57 12.76,17.78 13.17,16.98 13.58,16.21 14.01,15.44 
				14.45,14.69 14.93,13.99 15.41,13.32 15.94,12.67 16.5,12.04 16.74,11.82 17,11.58 17.25,11.39 17.54,11.17 17.8,10.98 
				18.09,10.79 18.4,10.59 18.72,10.42 19.01,10.23 19.32,10.06 19.66,9.92 19.97,9.77 20.31,9.63 20.65,9.51 20.98,9.39 
				21.32,9.27 21.66,9.17 22.02,9.1 22.36,9.03 22.72,8.95 23.06,8.9 23.44,8.88 23.78,8.86 24.14,8.83 24.48,8.86 24.84,8.88 
				25.2,8.9 25.54,8.95 25.88,9.03 26.24,9.1 26.58,9.22 26.89,9.34 27.06,9.34 27.21,9.36 27.37,9.39 27.52,9.43 27.66,9.51 
				27.81,9.56 27.95,9.63 28.1,9.7 28.27,9.8 28.41,9.87 28.58,9.97 28.72,10.04 28.89,10.11 29.06,10.21 29.25,10.28 29.42,10.35 
				28.65,10.76 27.95,11.22 27.28,11.7 26.65,12.26 26.07,12.83 25.49,13.46 24.99,14.09 24.48,14.79 24.02,15.51 23.59,16.26 
				23.15,17.03 22.77,17.83 22.41,18.62 22.02,19.44 21.66,20.29 21.32,21.13 20.98,21.97 20.65,22.82 20.31,23.69 19.97,24.55 
				19.61,25.37 19.27,26.24 18.91,27.06 18.52,27.88 18.14,28.68 17.73,29.47 17.29,30.22 16.84,30.97 16.35,31.69 15.85,32.37 
				15.29,33.02 14.71,33.67 14.47,33.81 14.23,33.98 13.99,34.15 13.73,34.32 13.46,34.47 13.19,34.61 12.9,34.73 12.62,34.88 
				12.33,35 12.04,35.12 11.72,35.21 11.41,35.33 11.07,35.43 10.78,35.53 10.45,35.62 10.11,35.7 9.79,35.77 9.46,35.84 
				9.14,35.91 8.81,35.96 8.49,36.03 8.15,36.06 7.84,36.11 7.5,36.13 7.17,36.15 6.88,36.18 6.56,36.18 6.25,36.18 5.94,36.18 
				5.65,36.15 5.33,36.13 			"/>
		</defs>
		<clipPath id="SVGID_5_">
			<use xlink:href="#SVGID_4_"  style="overflow:visible;"/>
		</clipPath>
		<linearGradient id="SVGID_6_" gradientUnits="userSpaceOnUse" x1="15.7024" y1="36.1777" x2="15.7024" y2="8.8318">
			<stop  offset="0" style="stop-color:#FFCC00"/>
			<stop  offset="0.5" style="stop-color:#FFED00"/>
			<stop  offset="1" style="stop-color:#FFCC00"/>
		</linearGradient>
		<rect x="1.98" y="8.83" class="st2" width="27.44" height="27.35"/>
	</g>
	<polygon class="st0" points="41.75,45.03 39.21,47.13 39.26,46.31 39.19,45.51 39.12,44.71 38.95,43.89 38.73,43.15 38.49,42.35 
		38.2,41.6 37.86,40.83 37.48,40.08 37.07,39.34 36.63,38.61 36.15,37.89 35.67,37.14 35.16,36.42 34.61,35.7 34.1,35 33.52,34.25 
		32.99,33.53 32.41,32.8 31.88,32.1 31.3,31.38 30.77,30.66 30.24,29.91 29.74,29.18 29.25,28.44 28.77,27.71 28.34,26.97 
		27.93,26.19 27.54,25.42 27.18,24.65 26.89,23.88 26.63,23.08 26.58,22.77 26.51,22.43 26.46,22.09 26.38,21.76 26.36,21.42 
		26.34,21.08 26.31,20.72 26.31,20.36 26.31,20.02 26.34,19.66 26.36,19.3 26.38,18.96 26.46,18.57 26.51,18.24 26.58,17.87 
		26.65,17.54 26.75,17.18 26.82,16.81 26.96,16.5 27.06,16.16 27.21,15.83 27.35,15.49 27.52,15.2 27.69,14.88 27.86,14.57 
		28.07,14.28 28.27,13.99 28.48,13.73 28.72,13.44 28.94,13.2 29.23,12.96 29.5,12.71 29.57,12.59 29.69,12.47 29.76,12.35 
		29.91,12.26 30,12.14 30.12,12.04 30.27,11.97 30.41,11.87 30.58,11.77 30.73,11.68 30.87,11.58 31.01,11.48 31.16,11.39 
		31.3,11.29 31.47,11.15 31.62,11.03 31.59,11.89 31.64,12.76 31.74,13.58 31.88,14.38 32.1,15.2 32.34,15.99 32.65,16.77 
		33.02,17.56 33.4,18.31 33.81,19.06 34.29,19.8 34.78,20.55 35.28,21.27 35.79,22 36.34,22.72 36.9,23.45 37.48,24.17 38.03,24.89 
		38.61,25.62 39.19,26.32 39.74,27.04 40.3,27.79 40.85,28.51 41.36,29.26 41.87,29.98 42.35,30.73 42.78,31.5 43.22,32.27 
		43.58,33.04 43.92,33.81 44.21,34.63 44.45,35.43 44.49,35.72 44.52,36.03 44.54,36.32 44.54,36.61 44.54,36.9 44.52,37.22 
		44.49,37.55 44.47,37.87 44.42,38.18 44.37,38.49 44.33,38.83 44.25,39.14 44.18,39.48 44.11,39.8 44.04,40.11 43.94,40.45 
		43.84,40.76 43.75,41.1 43.63,41.39 43.51,41.7 43.39,42.01 43.27,42.33 43.12,42.62 43,42.91 42.86,43.19 42.71,43.48 
		42.57,43.75 42.4,44.04 42.25,44.28 42.08,44.55 41.91,44.79 	"/>
	<g>
		<defs>
			<polygon id="SVGID_7_" points="41.75,45.03 39.21,47.13 39.26,46.31 39.19,45.51 39.12,44.71 38.95,43.89 38.73,43.15 
				38.49,42.35 38.2,41.6 37.86,40.83 37.48,40.08 37.07,39.34 36.63,38.61 36.15,37.89 35.67,37.14 35.16,36.42 34.61,35.7 
				34.1,35 33.52,34.25 32.99,33.53 32.41,32.8 31.88,32.1 31.3,31.38 30.77,30.66 30.24,29.91 29.74,29.18 29.25,28.44 
				28.77,27.71 28.34,26.97 27.93,26.19 27.54,25.42 27.18,24.65 26.89,23.88 26.63,23.08 26.58,22.77 26.51,22.43 26.46,22.09 
				26.38,21.76 26.36,21.42 26.34,21.08 26.31,20.72 26.31,20.36 26.31,20.02 26.34,19.66 26.36,19.3 26.38,18.96 26.46,18.57 
				26.51,18.24 26.58,17.88 26.65,17.54 26.75,17.18 26.82,16.81 26.96,16.5 27.06,16.16 27.21,15.83 27.35,15.49 27.52,15.2 
				27.69,14.88 27.86,14.57 28.07,14.28 28.27,13.99 28.48,13.73 28.72,13.44 28.94,13.2 29.23,12.96 29.5,12.71 29.57,12.59 
				29.69,12.47 29.76,12.35 29.91,12.26 30,12.14 30.12,12.04 30.27,11.97 30.41,11.87 30.58,11.77 30.73,11.68 30.87,11.58 
				31.02,11.48 31.16,11.39 31.3,11.29 31.47,11.15 31.62,11.03 31.59,11.89 31.64,12.76 31.74,13.58 31.88,14.38 32.1,15.2 
				32.34,15.99 32.65,16.77 33.02,17.56 33.4,18.31 33.81,19.06 34.29,19.8 34.78,20.55 35.28,21.27 35.79,22 36.34,22.72 
				36.9,23.45 37.48,24.17 38.03,24.89 38.61,25.62 39.19,26.32 39.74,27.04 40.3,27.79 40.85,28.51 41.36,29.26 41.87,29.98 
				42.35,30.73 42.78,31.5 43.22,32.27 43.58,33.04 43.92,33.81 44.21,34.63 44.45,35.43 44.49,35.72 44.52,36.03 44.54,36.32 
				44.54,36.61 44.54,36.9 44.52,37.21 44.49,37.55 44.47,37.87 44.42,38.18 44.37,38.49 44.33,38.83 44.25,39.14 44.18,39.48 
				44.11,39.8 44.04,40.11 43.94,40.45 43.84,40.76 43.75,41.1 43.63,41.39 43.51,41.7 43.39,42.01 43.27,42.33 43.12,42.62 
				43,42.91 42.86,43.2 42.71,43.48 42.57,43.75 42.4,44.04 42.25,44.28 42.08,44.55 41.91,44.79 			"/>
		</defs>
		<clipPath id="SVGID_8_">
			<use xlink:href="#SVGID_7_"  style="overflow:visible;"/>
		</clipPath>
		<linearGradient id="SVGID_9_" gradientUnits="userSpaceOnUse" x1="35.4278" y1="47.1262" x2="35.4278" y2="11.0265">
			<stop  offset="0" style="stop-color:#312783"/>
			<stop  offset="0.5" style="stop-color:#0078B7"/>
			<stop  offset="1" style="stop-color:#312783"/>
		</linearGradient>
		<rect x="26.31" y="11.03" class="st3" width="18.23" height="36.1"/>
	</g>
	<path class="st4" d="M243.25,34.72l-6.72-13.13l-6.58,13.13H243.25z M261.37,48.72h-10.71l-4.25-8.04h-19.48l-4.02,8.04h-10.44
		l18.98-35.38h10.4L261.37,48.72z M191.11,48.72V19.33h-14.45v-5.99h38.71v5.99h-14.42v29.39H191.11z M160.21,34.72l-6.72-13.13
		l-6.58,13.13H160.21z M178.32,48.72h-10.71l-4.25-8.04h-19.48l-4.02,8.04h-10.44l18.98-35.38h10.4L178.32,48.72z M104.81,19.33
		v10.03h5.38c3.88,0,6.48-0.18,7.78-0.55s2.33-0.95,3.07-1.74c0.74-0.79,1.11-1.71,1.11-2.75c0-1.29-0.52-2.35-1.57-3.19
		c-1.03-0.83-2.36-1.36-3.95-1.57c-1.18-0.16-3.54-0.24-7.08-0.24H104.81z M94.97,48.72V13.34h15.78c5.98,0,9.88,0.18,11.69,0.54
		c2.79,0.53,5.14,1.68,7.02,3.46c1.88,1.78,2.82,4.08,2.82,6.89c0,2.17-0.54,4-1.63,5.48c-1.09,1.48-2.46,2.64-4.14,3.49
		c-1.67,0.84-3.37,1.4-5.09,1.67c-2.35,0.34-5.75,0.51-10.21,0.51h-6.41v13.35H94.97z M53.59,13.34h9.83v15.06
		c2.2-0.16,3.69-0.57,4.46-1.23c0.77-0.66,1.97-2.5,3.58-5.5c2.04-3.83,4.09-6.21,6.15-7.14c2.04-0.94,5.33-1.4,9.87-1.4
		c0.23,0,0.7-0.01,1.43-0.02v5.28l-1.4-0.02c-2.01,0-3.48,0.18-4.41,0.54c-0.93,0.36-1.69,0.91-2.26,1.66
		c-0.58,0.74-1.43,2.26-2.56,4.56c-0.6,1.22-1.25,2.24-1.94,3.06c-0.7,0.82-1.94,1.59-3.71,2.31c2.19,0.45,4,1.36,5.43,2.73
		c1.43,1.37,2.99,3.3,4.7,5.79l6.65,9.7H77.86l-5.82-9.14c-0.09-0.13-0.27-0.38-0.57-0.75c-0.1-0.13-0.52-0.68-1.23-1.66
		c-1.26-1.74-2.3-2.83-3.11-3.26c-0.81-0.44-2.04-0.66-3.71-0.68v15.5h-9.83V13.34z"/>
	<path class="st4" d="M251.52,6.06c0.21,0.01,0.37,0.02,0.47,0.02c0.73,0,1.25-0.14,1.58-0.41c0.33-0.27,0.49-0.63,0.49-1.08
		c0-0.42-0.15-0.77-0.44-1.05c-0.29-0.28-0.7-0.42-1.21-0.42c-0.25,0-0.54,0.05-0.89,0.17V6.06z M249.55,2.75h3.37
		c0.81,0,1.42,0.17,1.82,0.52c0.41,0.34,0.61,0.77,0.61,1.27c0,0.45-0.15,0.84-0.44,1.15c-0.3,0.32-0.78,0.54-1.44,0.68l1.88,2.41
		c0.24,0.3,0.44,0.51,0.59,0.61c0.11,0.07,0.27,0.12,0.47,0.14v0.3h-1.58l-2.62-3.31h-0.69v1.83c0,0.49,0.06,0.81,0.17,0.94
		c0.11,0.13,0.35,0.21,0.71,0.24v0.3h-2.93v-0.3c0.36-0.02,0.61-0.11,0.72-0.24c0.12-0.14,0.18-0.44,0.18-0.9V4.13
		c0-0.41-0.06-0.68-0.18-0.82c-0.12-0.14-0.33-0.23-0.64-0.26V2.75z M258.44,6.59c0-1.62-0.57-3-1.71-4.14
		c-1.14-1.14-2.52-1.72-4.14-1.72c-1.62,0-3,0.57-4.15,1.72c-1.14,1.15-1.71,2.53-1.71,4.14c0,1.61,0.57,3,1.71,4.14
		c1.14,1.15,2.52,1.72,4.15,1.72c1.62,0,3-0.57,4.14-1.72C257.87,9.59,258.44,8.21,258.44,6.59z M259.17,6.59
		c0,1.82-0.64,3.37-1.93,4.66c-1.28,1.29-2.84,1.93-4.66,1.93c-1.82,0-3.37-0.64-4.66-1.93C246.64,9.97,246,8.41,246,6.59
		c0-1.82,0.64-3.38,1.93-4.66c1.29-1.29,2.84-1.93,4.66-1.93c1.82,0,3.37,0.64,4.66,1.93C258.53,3.22,259.17,4.77,259.17,6.59z"/>
</g>
</svg>
