<?xml version="1.0" encoding="utf-8"?>
<!-- Generator: Adobe Illustrator 24.2.0, SVG Export Plug-In . SVG Version: 6.00 Build 0)  -->
<svg version="1.1" id="Layer_1" xmlns="http://www.w3.org/2000/svg" xmlns:xlink="http://www.w3.org/1999/xlink" x="0px" y="0px"
	 viewBox="0 0 259.38 54.24" style="enable-background:new 0 0 259.38 54.24;" xml:space="preserve">
<style type="text/css">
	.st0{fill:none;stroke:#FFFFFF;stroke-width:1.6702;stroke-miterlimit:22.9256;}
	.st1{clip-path:url(#SVGID_2_);fill:url(#SVGID_3_);}
	.st2{clip-path:url(#SVGID_5_);fill:url(#SVGID_6_);}
	.st3{clip-path:url(#SVGID_8_);fill:url(#SVGID_9_);}
	.st4{fill-rule:evenodd;clip-rule:evenodd;fill:#2A398E;}
	.st5{fill:#2A398E;}
	.st6{clip-path:url(#SVGID_11_);fill:url(#SVGID_12_);}
	.st7{clip-path:url(#SVGID_14_);fill:url(#SVGID_15_);}
	.st8{clip-path:url(#SVGID_17_);fill:url(#SVGID_18_);}
	.st9{fill:none;stroke:#FFFFFF;stroke-width:2.1925;stroke-miterlimit:22.9256;}
	.st10{clip-path:url(#SVGID_20_);fill:url(#SVGID_21_);}
	.st11{clip-path:url(#SVGID_23_);fill:url(#SVGID_24_);}
	.st12{clip-path:url(#SVGID_26_);fill:url(#SVGID_27_);}
	.st13{fill:none;stroke:#2A398E;stroke-width:0.8418;stroke-miterlimit:22.9256;}
</style>
<g>
	<path class="st5" d="M252.49,47.74c0,1.02,0.24,1.8,0.71,2.33c0.47,0.53,1.08,0.79,1.8,0.79c0.73,0,1.33-0.26,1.8-0.79
		c0.47-0.53,0.7-1.31,0.7-2.36c0-1.04-0.23-1.81-0.68-2.32c-0.45-0.51-1.06-0.77-1.81-0.77c-0.75,0-1.36,0.26-1.82,0.77
		C252.72,45.92,252.49,46.7,252.49,47.74 M250.61,47.8c0-0.92,0.14-1.7,0.41-2.32c0.2-0.46,0.49-0.88,0.84-1.24
		c0.36-0.37,0.74-0.64,1.17-0.82c0.56-0.24,1.21-0.36,1.95-0.36c1.33,0,2.4,0.41,3.2,1.24c0.8,0.83,1.2,1.98,1.2,3.45
		c0,1.46-0.4,2.61-1.19,3.43c-0.79,0.83-1.86,1.24-3.18,1.24c-1.34,0-2.42-0.41-3.21-1.23C251,50.38,250.61,49.24,250.61,47.8z
		 M244.01,48.31v2.42h1.69c0.66,0,1.07-0.02,1.25-0.05c0.27-0.05,0.49-0.17,0.66-0.36c0.17-0.19,0.26-0.45,0.26-0.77
		c0-0.27-0.07-0.5-0.2-0.69c-0.13-0.19-0.32-0.33-0.57-0.41c-0.25-0.09-0.79-0.13-1.62-0.13H244.01z M244.01,44.73v2.08h1.2
		c0.71,0,1.15-0.01,1.32-0.03c0.31-0.04,0.56-0.14,0.74-0.32c0.18-0.18,0.27-0.41,0.27-0.7c0-0.28-0.08-0.51-0.23-0.68
		c-0.15-0.17-0.38-0.28-0.69-0.32c-0.18-0.02-0.7-0.03-1.56-0.03H244.01z M242.18,43.23h3.61c0.72,0,1.25,0.03,1.6,0.09
		c0.35,0.06,0.67,0.19,0.94,0.37c0.28,0.19,0.51,0.44,0.69,0.75c0.19,0.31,0.28,0.67,0.28,1.06c0,0.42-0.11,0.81-0.34,1.16
		c-0.23,0.35-0.54,0.62-0.93,0.79c0.55,0.16,0.97,0.44,1.27,0.82c0.29,0.39,0.44,0.84,0.44,1.37c0,0.41-0.09,0.81-0.29,1.2
		c-0.19,0.39-0.45,0.7-0.78,0.93c-0.33,0.23-0.74,0.37-1.22,0.43c-0.3,0.03-1.04,0.05-2.2,0.06h-3.08V43.23z M236.5,52.27v-7.51
		h-2.68v-1.53H241v1.53h-2.66v7.51H236.5z M231.45,48.93l1.77,0.54c-0.27,1-0.72,1.73-1.35,2.22c-0.63,0.48-1.43,0.72-2.4,0.72
		c-1.2,0-2.19-0.41-2.96-1.23c-0.77-0.82-1.16-1.94-1.16-3.37c0-1.5,0.39-2.67,1.17-3.51c0.78-0.83,1.8-1.25,3.07-1.25
		c1.11,0,2,0.33,2.7,0.98c0.41,0.39,0.72,0.94,0.93,1.67l-1.81,0.43c-0.11-0.47-0.33-0.84-0.67-1.11c-0.34-0.27-0.75-0.41-1.24-0.41
		c-0.67,0-1.22,0.24-1.63,0.72c-0.42,0.48-0.63,1.26-0.63,2.34c0,1.14,0.21,1.95,0.62,2.44c0.41,0.49,0.95,0.73,1.61,0.73
		c0.49,0,0.9-0.15,1.25-0.46C231.05,50.08,231.3,49.6,231.45,48.93z M217.25,52.27v-9.04h6.69v1.53h-4.86v2.01h4.52v1.53h-4.52v2.45
		h5.04v1.53H217.25z M204.41,43.23h1.83v7.51h2.6v-7.51h1.83v7.51h2.68v-7.51h1.83v7.51h0.81v3.5h-1.53v-1.97h-10.05V43.23z
		 M197.18,50.74h1.77c0.57,0,0.97-0.03,1.19-0.08c0.23-0.05,0.43-0.18,0.6-0.37c0.17-0.19,0.25-0.43,0.25-0.72
		c0-0.41-0.15-0.72-0.45-0.9c-0.3-0.19-0.81-0.28-1.53-0.28h-1.85V50.74z M195.35,43.23h6.75v1.53h-4.92v2.1h2.44
		c0.67,0,1.23,0.08,1.67,0.25c0.44,0.16,0.82,0.47,1.14,0.91c0.31,0.44,0.47,0.96,0.47,1.56c0,0.61-0.16,1.13-0.48,1.57
		c-0.32,0.43-0.68,0.73-1.08,0.89c-0.4,0.16-0.98,0.24-1.73,0.24h-4.26V43.23z M186.99,47.74c0,1.02,0.24,1.8,0.71,2.33
		c0.47,0.53,1.08,0.79,1.8,0.79c0.73,0,1.33-0.26,1.8-0.79c0.47-0.53,0.7-1.31,0.7-2.36c0-1.04-0.23-1.81-0.68-2.32
		c-0.45-0.51-1.06-0.77-1.81-0.77c-0.75,0-1.36,0.26-1.82,0.77C187.23,45.92,186.99,46.7,186.99,47.74z M185.11,47.8
		c0-0.92,0.14-1.7,0.41-2.32c0.2-0.46,0.49-0.88,0.84-1.24c0.36-0.37,0.74-0.64,1.17-0.82c0.56-0.24,1.21-0.36,1.95-0.36
		c1.33,0,2.4,0.41,3.2,1.24c0.8,0.83,1.2,1.98,1.2,3.45c0,1.46-0.4,2.61-1.19,3.43c-0.79,0.83-1.86,1.24-3.18,1.24
		c-1.34,0-2.42-0.41-3.21-1.23C185.51,50.38,185.11,49.24,185.11,47.8z M173.57,52.27v-9.04h6.69v1.53h-4.86v2.01h4.52v1.53h-4.52
		v2.45h5.04v1.53H173.57z M165.25,47.74c0,1.02,0.24,1.8,0.71,2.33c0.47,0.53,1.08,0.79,1.8,0.79c0.73,0,1.33-0.26,1.8-0.79
		c0.47-0.53,0.7-1.31,0.7-2.36c0-1.04-0.23-1.81-0.68-2.32c-0.45-0.51-1.06-0.77-1.81-0.77c-0.75,0-1.36,0.26-1.82,0.77
		C165.48,45.92,165.25,46.7,165.25,47.74z M163.37,47.8c0-0.92,0.14-1.7,0.41-2.32c0.2-0.46,0.49-0.88,0.84-1.24
		c0.36-0.37,0.74-0.64,1.17-0.82c0.56-0.24,1.21-0.36,1.95-0.36c1.33,0,2.4,0.41,3.2,1.24c0.8,0.83,1.2,1.98,1.2,3.45
		c0,1.46-0.4,2.61-1.19,3.43c-0.79,0.83-1.86,1.24-3.18,1.24c-1.34,0-2.42-0.41-3.21-1.23C163.77,50.38,163.37,49.24,163.37,47.8z
		 M154.63,52.27v-9.04h1.83v3.56h3.56v-3.56h1.83v9.04h-1.83v-3.95h-3.56v3.95H154.63z M148.04,44.76v2.58h1
		c0.72,0,1.2-0.05,1.44-0.14c0.24-0.09,0.43-0.24,0.57-0.45c0.14-0.2,0.21-0.44,0.21-0.7c0-0.33-0.1-0.6-0.29-0.82
		c-0.19-0.21-0.44-0.35-0.73-0.4c-0.22-0.04-0.65-0.06-1.31-0.06H148.04z M146.21,52.27v-9.04h2.93c1.11,0,1.83,0.04,2.17,0.13
		c0.52,0.14,0.95,0.43,1.3,0.89c0.35,0.45,0.52,1.04,0.52,1.76c0,0.56-0.1,1.02-0.3,1.4c-0.2,0.38-0.46,0.68-0.77,0.89
		c-0.31,0.21-0.62,0.36-0.94,0.43c-0.44,0.09-1.06,0.13-1.89,0.13h-1.19v3.41H146.21z M137.79,52.27v-9.04h6.69v1.53h-4.86v2.01
		h4.52v1.53h-4.52v2.45h5.04v1.53H137.79z M128.67,52.27v-9.04h1.83v3.56h3.56v-3.56h1.83v9.04h-1.83v-3.95h-3.56v3.95H128.67z
		 M120.36,47.74c0,1.02,0.24,1.8,0.71,2.33c0.47,0.53,1.08,0.79,1.8,0.79c0.73,0,1.33-0.26,1.8-0.79c0.47-0.53,0.7-1.31,0.7-2.36
		c0-1.04-0.23-1.81-0.68-2.32c-0.45-0.51-1.06-0.77-1.81-0.77c-0.75,0-1.36,0.26-1.82,0.77C120.59,45.92,120.36,46.7,120.36,47.74z
		 M118.48,47.8c0-0.92,0.14-1.7,0.41-2.32c0.2-0.46,0.49-0.88,0.84-1.24c0.36-0.37,0.74-0.64,1.17-0.82
		c0.56-0.24,1.21-0.36,1.95-0.36c1.33,0,2.4,0.41,3.2,1.24c0.8,0.83,1.2,1.98,1.2,3.45c0,1.46-0.4,2.61-1.19,3.43
		c-0.79,0.83-1.86,1.24-3.18,1.24c-1.34,0-2.42-0.41-3.21-1.23C118.87,50.38,118.48,49.24,118.48,47.8z M109.81,43.23h1.7v6.02
		l3.66-6.02h1.82v9.04h-1.7v-5.92l-3.66,5.92h-1.82V43.23z M100.58,43.23h1.83v7.51h3.52v-7.51h1.83v7.51h0.76v3.5H107v-1.97h-6.41
		V43.23z M92.88,43.23h1.83v3.85c0.41-0.04,0.68-0.15,0.82-0.32c0.14-0.17,0.37-0.64,0.66-1.41c0.38-0.98,0.76-1.59,1.14-1.83
		c0.38-0.24,0.99-0.36,1.83-0.36c0.04,0,0.13,0,0.27-0.01v1.35l-0.26-0.01c-0.37,0-0.65,0.05-0.82,0.14
		c-0.17,0.09-0.31,0.23-0.42,0.42c-0.11,0.19-0.27,0.58-0.47,1.17c-0.11,0.31-0.23,0.57-0.36,0.78c-0.13,0.21-0.36,0.41-0.69,0.59
		c0.41,0.11,0.74,0.35,1.01,0.7c0.27,0.35,0.56,0.84,0.87,1.48l1.23,2.47h-2.15l-1.08-2.33c-0.02-0.03-0.05-0.1-0.11-0.19
		c-0.02-0.03-0.1-0.17-0.23-0.43c-0.23-0.45-0.42-0.72-0.57-0.84c-0.15-0.11-0.37-0.17-0.68-0.17v3.95h-1.83V43.23z M88.54,48.68
		l-1.26-3.35l-1.22,3.35H88.54z M91.88,52.27h-1.97l-0.78-2.06H85.5l-0.75,2.06h-1.94l3.51-9.04h1.93L91.88,52.27z M71.81,52.27
		v-9.04h6.69v1.53h-4.86v2.01h4.52v1.53h-4.52v2.45h5.04v1.53H71.81z M63.49,47.74c0,1.02,0.24,1.8,0.71,2.33
		c0.47,0.53,1.08,0.79,1.8,0.79c0.73,0,1.33-0.26,1.8-0.79c0.47-0.53,0.7-1.31,0.7-2.36c0-1.04-0.23-1.81-0.68-2.32
		c-0.45-0.51-1.06-0.77-1.81-0.77c-0.75,0-1.36,0.26-1.82,0.77C63.73,45.92,63.49,46.7,63.49,47.74z M61.61,47.8
		c0-0.92,0.14-1.7,0.41-2.32c0.2-0.46,0.49-0.88,0.84-1.24c0.36-0.37,0.74-0.64,1.17-0.82c0.56-0.24,1.21-0.36,1.95-0.36
		c1.33,0,2.4,0.41,3.2,1.24c0.8,0.83,1.2,1.98,1.2,3.45c0,1.46-0.4,2.61-1.19,3.43c-0.79,0.83-1.86,1.24-3.18,1.24
		c-1.34,0-2.42-0.41-3.21-1.23C62.01,50.38,61.61,49.24,61.61,47.8z M52.88,52.27v-9.04h1.83v3.56h3.56v-3.56h1.83v9.04h-1.83v-3.95
		h-3.56v3.95H52.88z M43.85,43.23h1.83v2.16c0,0.7,0.03,1.16,0.08,1.39c0.05,0.23,0.2,0.43,0.46,0.6c0.25,0.17,0.63,0.25,1.12,0.25
		c0.39,0,0.74-0.04,1.04-0.13c0.3-0.08,0.57-0.21,0.79-0.37v-3.89H51v9.04h-1.83v-3.64c-0.37,0.16-0.73,0.29-1.09,0.37
		c-0.36,0.08-0.71,0.13-1.05,0.13c-0.9,0-1.65-0.21-2.26-0.64c-0.61-0.42-0.91-1.16-0.91-2.21V43.23z M34.96,43.23h1.7v6.02
		l3.66-6.02h1.82v9.04h-1.7v-5.92l-3.66,5.92h-1.82V43.23z M26.72,43.23h6.33v9.04h-1.83v-7.51h-2.71v3.86
		c0,1.1-0.04,1.88-0.11,2.31c-0.07,0.44-0.25,0.78-0.54,1.02c-0.29,0.24-0.73,0.37-1.34,0.37c-0.21,0-0.6-0.02-1.17-0.06v-1.42
		l0.41,0.01c0.38,0,0.64-0.05,0.77-0.15c0.13-0.1,0.2-0.36,0.2-0.76l-0.01-1.55V43.23z M19.18,50.74h1.77
		c0.57,0,0.97-0.03,1.19-0.08c0.23-0.05,0.43-0.18,0.6-0.37c0.17-0.19,0.25-0.43,0.25-0.72c0-0.41-0.15-0.72-0.45-0.9
		c-0.3-0.19-0.81-0.28-1.53-0.28h-1.85V50.74z M17.35,43.23h6.75v1.53h-4.92v2.1h2.44c0.67,0,1.23,0.08,1.67,0.25
		c0.44,0.16,0.82,0.47,1.14,0.91c0.31,0.44,0.47,0.96,0.47,1.56c0,0.61-0.16,1.13-0.48,1.57c-0.32,0.43-0.68,0.73-1.08,0.89
		c-0.4,0.16-0.98,0.24-1.73,0.24h-4.26V43.23z M8.53,43.23h2.06l2.1,4.68l1.8-4.68h1.9l-3.06,6.87c-0.33,0.74-0.67,1.31-1.02,1.7
		c-0.35,0.39-0.79,0.58-1.34,0.58c-0.54,0-0.96-0.04-1.26-0.11v-1.36c0.26,0.02,0.49,0.03,0.7,0.03c0.42,0,0.72-0.08,0.91-0.23
		c0.18-0.16,0.36-0.49,0.52-1L8.53,43.23z M0.41,43.23H7.6v9.04H5.77v-7.51H2.24v7.51H0.41V43.23z"/>
	<path class="st5" d="M225.45,0h31.71v8.34h-10.64v25.42h-10.43V8.34h-10.63V0z M188.58,0h10.43v11.81h11.4V0h10.48v33.76h-10.48
		V20.1h-11.4v13.65h-10.43V0z M154.47,0h27.95v7.21h-17.5v5.37h16.23v6.89h-16.23v6.65h18.01v7.65h-28.46V0z M109.86,0h13.72
		l5.3,20.54L134.16,0h13.68v33.76h-8.52V8.02l-6.61,25.74h-7.71l-6.59-25.74v25.74h-8.54V0z M105.26,8.29H88.93v25.47H78.52V0h26.74
		V8.29z M71.55,0v33.76h-9.81V15.22L49.09,33.76h-9.83V0h9.83v18.67L61.81,0H71.55z M32.29,33.76H21.88V8.29H10.41v25.47H0V0h32.29
		V33.76z"/>
</g>
</svg>
