<?xml version="1.0" encoding="utf-8"?><svg viewBox="0 0 26 28" xmlns="http://www.w3.org/2000/svg" xmlns:xlink="http://www.w3.org/1999/xlink"><style>:root>svg{display:none}:root>svg:target{display:block}</style><svg viewBox="0 0 13 18" id="ic_adres" xmlns="http://www.w3.org/2000/svg"><path fill-rule="evenodd" d="M6.797.132A6.206 6.206 0 0 0 .598 6.33c0 4.242 5.548 10.469 5.784 10.732a.56.56 0 0 0 .831 0c.236-.263 5.783-6.49 5.783-10.732A6.206 6.206 0 0 0 6.797.132zm0 9.317A3.123 3.123 0 0 1 3.678 6.33c0-1.719 1.4-3.118 3.119-3.118A3.122 3.122 0 0 1 9.916 6.33a3.122 3.122 0 0 1-3.119 3.119z"/></svg><svg viewBox="0 0 18 21" id="ic_center_link" xmlns="http://www.w3.org/2000/svg"><path fill-rule="evenodd" d="M9.259.305L.518 4.675v11.197l8.741 4.371 8.742-4.371V4.675L9.259.305zm-.846 17.623L2.21 14.826V6.567l6.203 3.101v8.26zM3.256 5.198l6.003-3.002 6.004 3.002L9.259 8.2 3.256 5.198zm13.053 9.628l-6.204 3.102v-8.26l6.204-3.101v8.259z"/></svg><svg viewBox="0 0 15 12" id="ic_email" xmlns="http://www.w3.org/2000/svg"><path fill-rule="evenodd" d="M13.387 11.996H1.676c-.887 0-1.608-.709-1.608-1.581V3.046L6.314 7.14c.342.224.779.336 1.217.336.438 0 .876-.112 1.217-.336l6.247-4.094v7.369c0 .872-.722 1.581-1.608 1.581zM8.263 5.425c-.39.255-1.074.255-1.463 0h-.001L.156 1.07A1.609 1.609 0 0 1 1.676.004h11.71c.704 0 1.303.446 1.521 1.066L8.263 5.425z"/></svg><svg viewBox="0 0 14 13" id="ic_phone" xmlns="http://www.w3.org/2000/svg"><path fill-rule="evenodd" d="M13.179 10.164a.62.62 0 0 1-.19.545l-1.813 1.801a1.02 1.02 0 0 1-.32.232 1.307 1.307 0 0 1-.389.123 2.066 2.066 0 0 1-.259.014 6.32 6.32 0 0 1-.838-.089c-.386-.059-.858-.205-1.417-.436-.559-.232-1.192-.58-1.901-1.044-.709-.464-1.463-1.101-2.262-1.91a14.983 14.983 0 0 1-1.581-1.801A12.877 12.877 0 0 1 1.2 6.009a8.539 8.539 0 0 1-.572-1.323 7.09 7.09 0 0 1-.259-1.023 3.412 3.412 0 0 1-.054-.675c.009-.164.013-.255.013-.273.018-.127.059-.257.123-.389a1.03 1.03 0 0 1 .232-.321L2.495.191A.602.602 0 0 1 2.931 0c.118 0 .223.034.314.102a.95.95 0 0 1 .231.253l1.458 2.769a.665.665 0 0 1 .069.477.852.852 0 0 1-.232.437l-.668.669a.355.355 0 0 0-.068.191c.036.191.118.409.245.655.109.218.277.484.505.798.227.313.549.675.967 1.084.409.419.772.744 1.09.976.318.232.584.402.798.511.213.109.377.176.49.198l.171.034a.344.344 0 0 0 .088-.02.234.234 0 0 0 .089-.048l.776-.791a.835.835 0 0 1 .573-.219.72.72 0 0 1 .368.082h.013l2.631 1.555c.19.119.304.269.34.451z"/></svg><svg viewBox="0 0 25 25" id="ic_search" xmlns="http://www.w3.org/2000/svg"><path d="M23.784 22.594l-5.812-6.082a9.925 9.925 0 0 0 2.313-6.377c0-5.469-4.424-9.919-9.86-9.919-5.437 0-9.861 4.45-9.861 9.919 0 5.47 4.424 9.92 9.861 9.92a9.72 9.72 0 0 0 5.649-1.795l5.856 6.127c.245.256.574.397.927.397.334 0 .651-.128.891-.361a1.3 1.3 0 0 0 .036-1.829zM10.425 2.804c4.018 0 7.288 3.288 7.288 7.331 0 4.043-3.27 7.332-7.288 7.332-4.019 0-7.288-3.289-7.288-7.332 0-4.043 3.269-7.331 7.288-7.331z"/></svg><svg viewBox="0 0 26 28" id="ic_video_play" xmlns="http://www.w3.org/2000/svg"><path fill="none" d="M20.766 14.092L5.984 22.627V5.557l14.782 8.535z"/></svg></svg>